<svg width="37" height="40" viewBox="0 0 37 40" fill="none" xmlns="http://www.w3.org/2000/svg">
<path d="M7.80187 18.5015L7.80189 18.5015C8.42314 19.2869 8.3044 20.4426 7.54558 21.0767L7.54553 21.0767L5.52274 22.7676L5.07192 23.1444L5.51604 23.5291L20.2025 36.2511L20.2024 36.2512L20.2092 36.2569C20.9681 36.891 21.0867 38.0467 20.4656 38.8316L20.4653 38.8319C20.1158 39.2743 19.6102 39.5 19.1028 39.5C18.7171 39.5 18.3278 39.3696 18.0018 39.098L1.16087 24.5756L1.16091 24.5755L1.15511 24.5707C0.743141 24.2261 0.5 23.7053 0.5 23.1512C0.5 22.5972 0.743054 22.0766 1.15527 21.7316L5.33487 18.238C5.33488 18.238 5.3349 18.2379 5.33492 18.2379C6.08554 17.6107 7.1874 17.7246 7.80187 18.5015Z" fill="white" stroke="black"/>
<path d="M21.051 2.24807L21.051 2.24934L20.8642 37.7796C20.8642 37.7798 20.8642 37.78 20.8642 37.7802C20.8563 38.7508 20.0885 39.5072 19.1779 39.4997L19.1775 39.4997C18.9448 39.4979 18.7246 39.4471 18.5243 39.3569C17.9324 39.0897 17.5122 38.474 17.5177 37.7516L17.5177 37.7504L17.705 2.22049C17.705 2.22029 17.705 2.2201 17.705 2.2199C17.7128 1.24915 18.4805 0.492552 19.3912 0.500056C20.3022 0.507565 21.0586 1.27709 21.051 2.24807Z" fill="white" stroke="black"/>
<path d="M31.2576 23.1512L30.7987 23.5348L29.2552 24.825C28.4965 25.4595 28.3778 26.615 28.9988 27.4004L28.9988 27.4004C29.3483 27.8425 29.8539 28.0683 30.3618 28.0683C30.7485 28.0683 31.1386 27.9372 31.4657 27.6639L35.166 24.5706L35.1661 24.5705C35.5782 24.2262 35.8211 23.7055 35.8211 23.1512C35.8211 22.597 35.5783 22.0767 35.166 21.7318L31.2576 23.1512ZM31.2576 23.1512L30.7987 22.7676L25.3005 18.1713L25.3004 18.1713C24.5417 17.5372 24.4232 16.3815 25.0442 15.5965L25.0443 15.5963C25.6587 14.8189 26.7604 14.7053 27.5111 15.3325C27.5111 15.3325 27.5111 15.3326 27.5112 15.3326L35.1659 21.7317L31.2576 23.1512Z" fill="#7B4AE2" stroke="black"/>
</svg>
